PathFileType	4	(X/Y/Z)	 s07c0403.trc
DataRate	CameraRate	NumFrames	NumMarkers	Units	OrigDataRate	OrigDataStartFrame	OrigNumFrames
200	200	6	48	mm	200	751	2000
Frame#	Time	racr			lacr			c7			jug			rlel			rdr			llel			ldr			s2			lic			ric			lasi			rasi			rpsi			lpsi			rgt			lgt			rth1			rth2			rth3			rth4			rlfc			rmfc			rsh1			rsh2			rsh3			rsh4			rlmal			rcal			rtoe			rmt5			lth1			lth2			lth4			lth3			llfc			lmfc			lsh1			lsh2			lsh3			lsh4			llmal			lcal			ltoe			lmt5			SBIKE			LBIKE			RBIKE			
		X1	Y1	Z1	X2	Y2	Z2	X3	Y3	Z3	X4	Y4	Z4	X5	Y5	Z5	X6	Y6	Z6	X7	Y7	Z7	X8	Y8	Z8	X9	Y9	Z9	X10	Y10	Z10	X11	Y11	Z11	X12	Y12	Z12	X13	Y13	Z13	X14	Y14	Z14	X15	Y15	Z15	X16	Y16	Z16	X17	Y17	Z17	X18	Y18	Z18	X19	Y19	Z19	X20	Y20	Z20	X21	Y21	Z21	X22	Y22	Z22	X23	Y23	Z23	X24	Y24	Z24	X25	Y25	Z25	X26	Y26	Z26	X27	Y27	Z27	X28	Y28	Z28	X29	Y29	Z29	X30	Y30	Z30	X31	Y31	Z31	X32	Y32	Z32	X33	Y33	Z33	X34	Y34	Z34	X35	Y35	Z35	X36	Y36	Z36	X37	Y37	Z37	X38	Y38	Z38	X39	Y39	Z39	X40	Y40	Z40	X41	Y41	Z41	X42	Y42	Z42	X43	Y43	Z43	X44	Y44	Z44	X45	Y45	Z45	X46	Y46	Z46	X47	Y47	Z47	X48	Y48	Z48	
751	3.7550	713.266738	1468.234650	-35.114927	785.575915	1442.994145	-363.450803	743.144442	1516.942339	-205.936454	720.154282	1367.287130	-201.639759	524.742924	1160.046722	44.372527	693.742738	937.607528	-42.159335	571.600288	1185.917289	-523.586445	696.712831	935.621425	-423.933372	186.969262	1249.939845	-247.442312	353.352542	1271.241153	-396.839023	356.439378	1285.781651	-102.181315	371.148425	1192.980887	-371.373456	373.965609	1231.758299	-121.540981	215.959261	1288.368537	-200.897447	230.047087	1289.772447	-312.014450	307.679175	1173.412794	-51.280344	259.609055	1128.285397	-405.249514	436.462530	1084.109027	-46.594513	513.080884	1041.844521	-57.723410	562.693193	972.514618	-51.724229	533.222881	1065.676615	-78.456419	633.925620	858.491201	-83.444133	624.551858	848.305033	-191.152238	521.794431	775.144367	-61.423558	456.315311	719.017112	-83.747420	373.244869	694.235418	-76.405890	465.486749	709.113161	-121.909988	248.247985	634.237171	-73.573901	172.303654	658.597055	-105.163488	340.808518	420.452864	-122.448155	267.929252	461.354652	-51.502799	259.753767	1013.853520	-418.202781	284.924999	929.752547	-423.492253	321.323770	930.557775	-419.166390	267.207275	842.132325	-415.874040	269.350818	671.920006	-390.192270	258.994161	654.606784	-299.326669	195.678995	545.259546	-411.951321	190.098824	465.719963	-391.685308	121.438262	393.608202	-398.939568	186.297762	463.601941	-352.313143	55.153591	274.583563	-394.671103	-21.921376	258.829086	-361.501894	247.770196	150.781343	-357.320743	163.177009	151.236610	-422.254115	-258.134678	967.054478	-233.141792	-75.812110	83.319397	-437.383117	-82.299595	79.786996	-39.968119	
752	3.7600	713.209153	1467.894977	-31.929621	786.621440	1443.491796	-361.102396	745.291555	1516.271136	-202.314487	720.222228	1367.239344	-199.368811	523.019054	1159.589177	43.538650	693.938375	938.315218	-42.663219	572.853966	1186.903318	-522.073084	696.914928	935.579823	-423.657144	187.459311	1253.702068	-248.382307	354.842691	1274.573100	-396.844183	356.032607	1288.348532	-102.035200	372.152254	1196.141328	-371.072644	373.474946	1234.468627	-121.536976	216.271603	1291.915376	-201.601267	231.147383	1293.363802	-312.605773	306.654592	1176.819928	-51.727416	260.982053	1131.549818	-405.983270	435.827425	1087.598573	-47.072749	512.579054	1046.106267	-57.490228	562.352123	976.645656	-52.596395	532.640446	1069.725198	-79.082642	635.191618	863.297080	-84.507901	625.327795	853.236947	-192.256997	524.710258	777.735726	-62.250319	460.241256	720.156729	-84.400928	377.708682	693.847371	-76.694164	469.407631	710.765634	-122.641214	253.638848	631.281944	-73.449401	176.841946	653.751444	-104.884585	351.959233	420.510051	-122.118205	278.023396	459.299097	-51.278206	261.795474	1016.956502	-417.869259	286.910364	932.791743	-422.369821	323.145128	933.612736	-417.777265	268.716492	845.928527	-414.481261	268.901167	674.734881	-388.673191	257.513478	657.905209	-297.363766	194.008552	548.852628	-410.417204	186.755012	468.946201	-390.426666	117.475626	398.425419	-398.059820	183.051098	467.587030	-350.840860	49.136020	280.810489	-394.489970	-28.117897	266.730253	-361.197938	238.397634	151.465647	-357.196243	153.809524	154.451801	-422.020682	-258.177001	967.096379	-233.045071	-75.812132	83.334772	-437.365251	-82.274533	79.781450	-39.970642	
753	3.7650	713.114056	1467.746269	-28.650887	787.581285	1443.658495	-358.826245	747.542050	1515.251691	-198.664475	720.296510	1366.695833	-197.071986	521.156012	1159.041053	42.664300	694.209716	939.140615	-43.123501	573.929776	1187.786964	-520.480546	697.016706	935.481360	-423.447792	187.801489	1257.930473	-249.285653	356.378422	1278.152474	-396.699091	355.471028	1291.164934	-101.859355	373.042548	1199.598628	-370.560706	372.840322	1237.275134	-121.319006	216.695263	1295.782466	-202.317979	232.107998	1297.289621	-313.121326	305.402497	1180.222381	-52.177059	262.291423	1134.822660	-406.820823	434.513795	1090.902898	-47.683479	511.411139	1049.547320	-58.315291	561.250114	980.073652	-53.640289	531.540654	1073.216062	-79.733627	635.587030	867.687006	-85.751433	624.953772	857.767721	-193.495163	526.787901	779.941791	-63.095714	463.393739	720.865378	-85.042473	381.374553	692.927714	-76.907874	472.683465	711.781033	-123.294976	258.442933	627.679122	-73.376001	180.807146	648.076047	-104.549307	362.927655	420.219968	-122.137313	287.948278	456.653796	-51.045863	264.208302	1019.888370	-417.357465	289.527892	935.814167	-420.973924	325.648499	936.683178	-416.041550	270.400443	849.202298	-414.236653	270.303797	677.217193	-386.942619	257.523495	661.224140	-295.164026	193.604379	552.596933	-408.795166	184.122569	472.424687	-388.971836	114.209119	403.551597	-397.000455	180.609931	471.668757	-349.277611	43.395054	287.540746	-394.196585	-34.094077	274.988134	-360.831211	229.142762	152.755897	-357.096029	144.639621	158.388920	-421.677018	-258.160791	967.171560	-232.883354	-75.814668	83.434535	-437.357089	-82.295294	79.844149	-39.940982	
754	3.7700	713.712997	1466.671206	-25.563605	788.675165	1443.468766	-356.491922	749.827291	1513.704145	-195.369209	720.359523	1365.693285	-195.117948	519.291037	1158.352101	41.781214	694.423177	940.237788	-43.284554	574.878043	1188.442950	-518.906379	697.045554	935.336345	-423.250274	188.012197	1262.280271	-250.229984	357.771780	1281.705059	-396.477904	354.779736	1293.961476	-101.687439	373.708197	1203.131103	-370.005508	372.027944	1240.317969	-121.128444	217.002528	1300.018622	-202.995785	232.904032	1301.525966	-313.701644	304.031584	1183.699490	-52.618439	263.490567	1138.211709	-407.674543	432.648533	1093.934375	-48.451961	509.637688	1052.460301	-59.283723	559.340945	982.910473	-54.862159	529.924853	1076.428021	-80.148719	635.233788	871.378786	-87.080428	623.660485	861.589074	-194.731943	527.913722	781.719470	-64.027312	465.873260	721.107606	-85.483570	384.384448	691.431563	-77.182459	475.179407	712.136584	-123.830356	262.650209	623.374878	-73.281640	184.621510	641.266967	-104.093150	373.731706	419.553099	-122.049013	297.544723	453.445012	-50.844996	266.893740	1022.570477	-416.760407	292.791888	938.730279	-419.355223	328.815043	939.924185	-414.145549	273.768622	852.316655	-413.533569	273.535819	679.495563	-385.191415	259.089473	664.429725	-292.953583	194.668806	556.137168	-407.136479	182.188907	476.121242	-387.343260	111.745463	409.119945	-395.891530	179.360307	475.961997	-347.766862	37.943265	295.081717	-393.721186	-39.551532	284.037986	-360.414598	220.014986	154.766999	-357.312831	135.844690	162.886121	-421.212542	-258.115869	967.262170	-232.713952	-75.744549	83.615202	-437.419293	-82.291968	80.072115	-39.869104	
755	3.7750	714.701401	1465.004646	-22.782937	789.821871	1442.852443	-354.219472	752.089016	1511.741839	-192.357840	720.555198	1364.537779	-192.972243	517.439660	1157.715238	40.904484	694.737820	941.045138	-43.443803	575.694063	1188.975278	-517.328653	697.039940	935.137142	-423.008622	188.162253	1266.922743	-251.066083	359.003356	1285.676165	-396.139992	354.044940	1296.888460	-101.525453	374.257581	1206.615182	-369.166772	371.160991	1243.433010	-120.907789	217.271719	1304.335730	-203.615952	233.793426	1306.015438	-314.057281	302.460608	1187.091640	-53.071726	264.694458	1141.622517	-408.487189	430.425995	1096.718735	-49.244807	507.361170	1054.977159	-60.204910	556.721152	985.297263	-56.153954	527.969470	1079.250024	-80.448426	633.874268	874.427034	-88.255830	621.352380	864.652666	-195.952310	528.000127	783.002508	-64.945453	467.362744	720.764460	-85.920470	386.717665	689.345906	-77.611544	476.952540	711.654113	-124.208393	266.161443	618.059295	-73.185506	186.463633	634.131324	-103.719139	384.115614	418.858469	-122.038548	306.662241	449.634558	-50.511589	269.972600	1025.080639	-416.323162	296.721815	941.458274	-417.553361	332.540051	943.208205	-411.878375	277.960228	855.252645	-412.865361	278.479455	681.352959	-383.298298	262.276534	667.489130	-290.945608	196.862243	559.979211	-405.578769	180.937594	480.012895	-385.578302	110.133928	415.045515	-394.756046	176.987416	480.649429	-345.930746	33.083251	303.274120	-393.282248	-44.471415	293.721980	-360.105987	211.217675	156.900445	-356.703295	127.423330	167.844840	-420.575302	-258.072699	967.361027	-232.495553	-75.730594	83.743662	-437.386297	-82.302619	80.119409	-39.852769	
756	3.7800	716.035680	1462.731756	-20.307496	790.848806	1441.864623	-351.993697	754.272138	1509.423669	-189.752143	720.746191	1362.893218	-190.979657	515.598155	1156.946235	39.942312	695.077445	941.918084	-43.580223	576.339788	1189.395133	-515.825613	696.960351	934.855358	-422.669444	188.236484	1271.525399	-251.910415	360.192174	1289.482323	-395.581145	353.187202	1299.844723	-101.320648	374.561474	1210.079806	-368.378637	370.147983	1246.475115	-120.747598	217.513926	1308.737249	-204.142812	234.646516	1310.432023	-314.400624	300.715793	1190.464858	-53.575461	265.818193	1144.962617	-409.197972	427.851848	1099.165273	-49.979270	504.637024	1057.235260	-61.100838	553.649835	987.279517	-57.342674	525.554130	1081.660618	-80.695822	632.528458	876.015853	-90.524925	618.192329	866.851556	-197.164452	527.122248	783.509035	-65.858112	467.978091	719.498706	-86.195673	388.061648	686.488109	-77.845903	477.775702	710.439465	-124.436963	268.886899	612.017312	-73.088127	188.290699	625.471983	-103.331783	394.017275	417.630407	-121.949677	315.395318	445.194071	-50.138469	273.032596	1027.349571	-415.460694	301.073074	944.264125	-415.593379	336.749417	946.431018	-409.356524	283.025652	857.804542	-411.721705	284.770493	683.128303	-381.487818	267.039876	670.343800	-289.131428	200.355619	563.554996	-403.990978	180.350690	484.088491	-383.729668	109.584135	421.082234	-393.783732	177.237694	485.158927	-344.154229	29.007667	312.088363	-392.834550	-48.659296	304.013063	-359.793158	202.760254	159.264582	-355.829416	122.179407	169.569833	-415.046375	-258.040676	967.444670	-232.294439	-75.712401	83.847302	-437.368748	-82.303310	80.190872	-39.830150	
